<svg width="753" height="682" viewBox="0 0 753 682" fill="none" xmlns="http://www.w3.org/2000/svg">
<g clip-path="url(#clip0_12_2)">
<path d="M716.203 219.349C721.308 219.349 725.447 215.21 725.447 210.105C725.447 204.999 721.308 200.86 716.203 200.86C711.097 200.86 706.958 204.999 706.958 210.105C706.958 215.21 711.097 219.349 716.203 219.349Z" fill="#F2F2F2"/>
<path d="M535.307 680H307.386C293.721 679.985 280.621 674.55 270.959 664.887C261.297 655.225 255.862 642.125 255.846 628.46V51.5396C255.862 37.8752 261.297 24.7749 270.959 15.1127C280.621 5.45051 293.721 0.0154809 307.386 0H535.307C548.972 0.0154783 562.072 5.4505 571.734 15.1127C581.396 24.7749 586.831 37.8752 586.846 51.5396V628.46C586.831 642.125 581.396 655.225 571.734 664.887C562.072 674.55 548.972 679.985 535.307 680Z" fill="#84A98C"/>
<path d="M532.757 16H507.387C505.122 16.0022 502.951 16.9027 501.35 18.5038C499.749 20.1048 498.849 22.2757 498.846 24.54C498.842 29.1693 497.001 33.6078 493.728 36.8812C490.454 40.1547 486.016 41.9956 481.387 42H357.306C352.677 41.9956 348.239 40.1547 344.965 36.8812C341.692 33.6078 339.851 29.1693 339.846 24.54C339.844 22.2757 338.944 20.1048 337.343 18.5038C335.742 16.9027 333.571 16.0022 331.306 16H308.936C298.573 16.0132 288.638 20.1359 281.31 27.4638C273.982 34.7917 269.86 44.7268 269.846 55.09V627.91C269.86 638.273 273.982 648.208 281.31 655.536C288.638 662.864 298.573 666.987 308.936 667H532.757C543.12 666.987 553.055 662.864 560.383 655.536C567.711 648.208 571.833 638.273 571.846 627.91V55.09C571.833 44.7268 567.711 34.7917 560.383 27.4638C553.055 20.1359 543.12 16.0132 532.757 16Z" fill="white"/>
<path d="M450.596 27.5H380.596C379.933 27.5 379.298 27.2366 378.829 26.7678C378.36 26.2989 378.096 25.663 378.096 25C378.096 24.337 378.36 23.7011 378.829 23.2322C379.298 22.7634 379.933 22.5 380.596 22.5H450.596C451.259 22.5 451.895 22.7634 452.364 23.2322C452.833 23.7011 453.096 24.337 453.096 25C453.096 25.663 452.833 26.2989 452.364 26.7678C451.895 27.2366 451.259 27.5 450.596 27.5Z" fill="white"/>
<path d="M461.596 27C462.701 27 463.596 26.1046 463.596 25C463.596 23.8954 462.701 23 461.596 23C460.492 23 459.596 23.8954 459.596 25C459.596 26.1046 460.492 27 461.596 27Z" fill="white"/>
<path d="M588.846 227.5C587.653 227.499 586.51 227.024 585.666 226.18C584.822 225.337 584.348 224.193 584.346 223V135C584.346 133.807 584.821 132.662 585.664 131.818C586.508 130.974 587.653 130.5 588.846 130.5C590.04 130.5 591.185 130.974 592.028 131.818C592.872 132.662 593.346 133.807 593.346 135V223C593.345 224.193 592.871 225.337 592.027 226.18C591.183 227.024 590.04 227.499 588.846 227.5Z" fill="#354F52"/>
<path d="M255.846 162.5C254.653 162.499 253.51 162.024 252.666 161.181C251.822 160.337 251.348 159.193 251.346 158V138C251.346 136.807 251.821 135.662 252.664 134.818C253.508 133.974 254.653 133.5 255.846 133.5C257.04 133.5 258.184 133.974 259.028 134.818C259.872 135.662 260.346 136.807 260.346 138V158C260.345 159.193 259.871 160.337 259.027 161.181C258.183 162.024 257.04 162.499 255.846 162.5Z" fill="#354F52"/>
<path d="M255.846 199.5C254.653 199.499 253.51 199.024 252.666 198.181C251.822 197.337 251.348 196.193 251.346 195V175C251.346 173.807 251.821 172.662 252.664 171.818C253.508 170.974 254.653 170.5 255.846 170.5C257.04 170.5 258.184 170.974 259.028 171.818C259.872 172.662 260.346 173.807 260.346 175V195C260.345 196.193 259.871 197.337 259.027 198.181C258.183 199.024 257.04 199.499 255.846 199.5Z" fill="#354F52"/>
<path d="M668 682H0.999985C0.734768 682 0.480414 681.895 0.292877 681.707C0.105341 681.52 -1.52588e-05 681.265 -1.52588e-05 681C-1.52588e-05 680.735 0.105341 680.48 0.292877 680.293C0.480414 680.105 0.734768 680 0.999985 680H668C668.265 680 668.52 680.105 668.707 680.293C668.895 680.48 669 680.735 669 681C669 681.265 668.895 681.52 668.707 681.707C668.52 681.895 668.265 682 668 682Z" fill="#354F52"/>
<path d="M62.649 669.899H74.909L80.741 622.611H62.647L62.649 669.899Z" fill="#FFB6B6"/>
<path d="M59.5217 665.896L83.6657 665.895H83.6667C87.7473 665.896 91.6608 667.517 94.5462 670.402C97.4317 673.288 99.0529 677.201 99.0532 681.282V681.782L59.5224 681.783L59.5217 665.896Z" fill="#354F52"/>
<path d="M175.649 669.899H187.909L193.741 622.611H175.647L175.649 669.899Z" fill="#FFB6B6"/>
<path d="M172.522 665.896L196.666 665.895H196.667C200.747 665.896 204.661 667.517 207.546 670.402C210.432 673.288 212.053 677.201 212.053 681.282V681.782L172.522 681.783L172.522 665.896Z" fill="#354F52"/>
<path d="M160.846 290L168.846 341L92.846 342L102.846 293L160.846 290Z" fill="#FFB6B6"/>
<path d="M171.846 328L190.846 393L193.846 660.102H173.346L124.346 445.5L79.3464 654.5H59.3464L73.3464 419.5C73.3464 419.5 66.3464 361.5 90.3464 344.5V329.583L171.846 328Z" fill="#354F52"/>
<path d="M62.8122 378.791C64.9283 378.215 66.8923 377.181 68.5657 375.763C70.2391 374.346 71.5812 372.578 72.4977 370.585C73.4141 368.593 73.8825 366.424 73.8699 364.23C73.8572 362.037 73.3638 359.873 72.4245 357.891L104.756 252.483L80.9749 247.769L51.4045 351.091C48.1796 352.89 45.7266 355.809 44.5102 359.296C43.2938 362.782 43.3986 366.594 44.8048 370.008C46.2109 373.423 48.8207 376.203 52.1396 377.821C55.4585 379.44 59.2559 379.785 62.8122 378.791Z" fill="#FFB6B6"/>
<path d="M153.018 184.818C166.413 171.423 166.413 149.706 153.018 136.311C139.623 122.916 117.905 122.916 104.51 136.311C91.1153 149.706 91.1153 171.423 104.51 184.818C117.905 198.213 139.623 198.213 153.018 184.818Z" fill="#FFB6B6"/>
<path d="M104.238 317.499C102.892 317.232 101.67 316.53 100.76 315.501C99.851 314.473 99.3042 313.174 99.2039 311.805C98.4497 301.477 94.7189 283.527 88.1161 258.454C86.6281 252.786 86.3551 246.869 87.315 241.089C88.2749 235.309 90.4459 229.797 93.6858 224.915C96.9256 220.033 101.161 215.892 106.114 212.762C111.067 209.632 116.626 207.585 122.426 206.754C127.924 205.959 133.526 206.274 138.901 207.681C144.275 209.088 149.312 211.559 153.715 214.947C158.117 218.335 161.796 222.572 164.532 227.407C167.269 232.242 169.008 237.576 169.646 243.095C172.913 271.866 166.751 300.77 163.949 311.861C163.61 313.196 162.842 314.383 161.763 315.24C160.685 316.097 159.355 316.577 157.977 316.606L105.589 317.618C105.136 317.628 104.683 317.588 104.238 317.499Z" fill="#84A98C"/>
<path d="M251.818 225.576C251.504 226.282 251.245 227.011 251.045 227.758L185.469 250.041L172.798 238.971L153.593 255.911L174.12 277.687C175.778 279.447 177.963 280.62 180.345 281.033C182.727 281.445 185.179 281.073 187.332 279.973L257.502 244.131C260.04 245.687 262.991 246.434 265.963 246.272C268.936 246.111 271.789 245.048 274.142 243.225C276.496 241.403 278.239 238.907 279.14 236.069C280.04 233.232 280.056 230.187 279.184 227.341C278.312 224.495 276.594 221.981 274.259 220.135C271.923 218.289 269.081 217.197 266.111 217.006C263.14 216.814 260.181 217.531 257.628 219.062C255.075 220.593 253.049 222.865 251.818 225.576Z" fill="#FFB6B6"/>
<path d="M183.183 251.259L159.278 272.138C158.598 272.732 157.798 273.173 156.932 273.43C156.066 273.687 155.155 273.754 154.261 273.627C153.367 273.5 152.511 273.182 151.75 272.694C150.99 272.207 150.344 271.561 149.856 270.801L132.758 244.175C129.738 240.678 128.228 236.126 128.56 231.517C128.891 226.909 131.036 222.62 134.525 219.59C138.014 216.561 142.562 215.039 147.171 215.358C151.781 215.676 156.076 217.81 159.115 221.29L183.126 241.743C183.813 242.329 184.366 243.056 184.747 243.875C185.128 244.693 185.328 245.585 185.333 246.488C185.339 247.391 185.15 248.284 184.779 249.108C184.407 249.931 183.863 250.665 183.183 251.259Z" fill="#84A98C"/>
<path d="M100.979 279.472L71.4373 267.866C70.5967 267.536 69.8373 267.028 69.2105 266.378C68.5838 265.728 68.1046 264.95 67.8055 264.098C67.5064 263.246 67.3945 262.339 67.4774 261.44C67.5603 260.541 67.836 259.67 68.2858 258.887L84.0475 231.448C85.7603 227.156 89.1057 223.718 93.3499 221.889C97.594 220.06 102.39 219.989 106.687 221.691C110.983 223.393 114.429 226.731 116.269 230.97C118.108 235.21 118.191 240.006 116.499 244.307L109.4 275.039C109.196 275.919 108.805 276.744 108.254 277.46C107.703 278.175 107.003 278.763 106.204 279.183C105.405 279.604 104.525 279.848 103.623 279.897C102.721 279.947 101.82 279.802 100.979 279.472Z" fill="#E6E6E6"/>
<path d="M144.624 152.881C152.098 160.514 162.247 168.849 172.328 164.297C178.948 161.308 182.294 154.006 181.276 146.815C179.444 133.883 168.88 126.255 158.578 119.971C145.185 111.802 130.294 104.464 114.629 105.307C98.964 106.151 82.9236 117.976 82.6121 133.661C82.3616 146.274 91.8449 158.69 87.7817 170.633C83.6924 182.653 68.5205 186.399 55.8258 186.176C43.1312 185.953 29.2746 183.943 18.7205 191.001C5.25696 200.005 4.0837 220.636 12.3069 234.59C20.53 248.544 35.4209 257.082 50.1583 263.801C69.6844 272.703 91.3371 279.64 112.386 275.462C133.435 271.284 152.863 252.656 151.248 231.257C150.565 222.219 146.392 213.867 142.369 205.744C138.346 197.621 134.319 189.162 133.966 180.104C133.671 172.556 136.605 164.442 142.456 159.983C143.513 159.21 144.297 158.121 144.696 156.873C145.096 155.626 145.089 154.284 144.678 153.04L144.624 152.881Z" fill="#354F52"/>
<path d="M564.151 299.884C553.333 306.372 534.059 314.501 514.364 306.147L501.632 300.746L527.145 272.146C506.786 249.697 495.522 220.468 495.553 190.162C495.584 159.856 506.908 130.65 527.313 108.243C547.718 85.8367 575.741 71.8383 605.912 68.9804C636.083 66.1225 666.235 74.6103 690.485 92.7869C714.735 110.964 731.341 137.525 737.061 167.285C742.782 197.046 737.207 227.871 721.425 253.743C705.642 279.615 680.785 298.677 651.705 307.208C622.625 315.74 591.409 313.128 564.151 299.884Z" fill="white"/>
<path d="M564.217 301.425C553.822 307.528 534.021 315.963 513.833 307.398L499.354 301.257L525.32 272.149C509.164 253.976 498.746 231.429 495.38 207.346C492.013 183.264 495.847 158.724 506.4 136.817C516.953 114.909 533.752 96.6146 554.682 84.2362C575.612 71.8578 599.737 65.9494 624.018 67.2551C648.299 68.5607 671.652 77.0221 691.133 91.5736C710.615 106.125 725.356 126.116 733.499 149.028C741.641 171.941 742.822 196.751 736.892 220.333C730.962 243.915 718.187 265.216 700.175 281.552C682.086 298.057 659.47 308.77 635.24 312.312C611.01 315.854 586.274 312.062 564.217 301.425ZM706.652 109.341C696.025 97.6123 683.19 88.0919 668.883 81.3243C654.575 74.5566 639.073 70.6743 623.265 69.8992C607.456 69.124 591.649 71.4711 576.748 76.8065C561.847 82.1419 548.142 90.3609 536.418 100.994C524.694 111.627 515.18 124.466 508.419 138.777C501.658 153.089 497.784 168.592 497.016 184.401C496.248 200.21 498.603 216.015 503.946 230.914C509.288 245.813 517.514 259.513 528.153 271.232L528.974 272.139L503.91 300.236L514.895 304.895C534.392 313.166 553.686 304.574 563.451 298.718L564.083 298.338L564.745 298.66C589.919 310.892 618.565 313.979 645.767 307.39C672.968 300.801 697.028 284.949 713.814 262.554C730.601 240.159 739.068 212.618 737.761 184.661C736.454 156.703 725.455 130.073 706.652 109.341Z" fill="#354F52"/>
<path d="M633.226 167.167H553.102V174.607H633.226V167.167Z" fill="#354F52"/>
<path d="M692.752 192.907H553.102V200.347H692.752V192.907Z" fill="#354F52"/>
<path d="M692.615 218.646H553.102V226.087H692.615V218.646Z" fill="#354F52"/>
<path d="M311.694 489.516C300.307 479.189 292.239 465.718 288.509 450.805C284.779 435.893 285.554 420.21 290.738 405.738C295.921 391.266 305.279 378.657 317.629 369.504C329.979 360.351 344.766 355.066 360.119 354.317C375.473 353.568 390.704 357.388 403.886 365.295C417.068 373.202 427.61 384.841 434.177 398.739C440.745 412.637 443.044 428.171 440.783 443.375C438.523 458.58 431.804 472.773 421.477 484.159L437.751 502.402L429.63 505.847C417.067 511.175 404.774 505.99 397.873 501.852C383.918 508.633 368.253 511.081 352.894 508.883C337.535 506.684 323.186 499.939 311.694 489.516Z" fill="white"/>
<path d="M363.806 510.602C344.308 510.587 325.518 503.297 311.111 490.159C299.622 479.739 291.473 466.153 287.691 451.111C283.909 436.069 284.662 420.244 289.856 405.629C295.049 391.015 304.452 378.264 316.878 368.982C329.304 359.7 344.2 354.303 359.687 353.471C375.175 352.638 390.563 356.406 403.913 364.302C417.263 372.197 427.979 383.867 434.71 397.84C441.441 411.814 443.886 427.466 441.739 442.827C439.591 458.188 432.947 472.57 422.641 484.161L439.204 502.728L429.969 506.645C417.092 512.108 404.461 506.728 397.831 502.835C387.214 507.938 375.586 510.592 363.806 510.602ZM312.276 488.874C323.617 499.223 337.809 505.921 353.007 508.097C368.205 510.272 383.706 507.824 397.494 501.072L397.917 500.866L398.32 501.108C404.549 504.844 416.855 510.324 429.291 505.048L436.298 502.076L420.311 484.155L420.835 483.577C431.046 472.317 437.69 458.283 439.925 443.248C442.161 428.213 439.887 412.853 433.393 399.11C426.898 385.367 416.475 373.858 403.439 366.039C390.404 358.22 375.343 354.442 360.161 355.183C344.979 355.924 330.358 361.15 318.146 370.201C305.934 379.252 296.68 391.721 291.554 406.031C286.429 420.341 285.662 435.849 289.35 450.595C293.039 465.341 301.017 478.662 312.276 488.874Z" fill="#354F52"/>
<path d="M404.921 417.199H353.814V421.945H404.921V417.199Z" fill="#354F52"/>
<path d="M404.921 433.617H315.846V438.363H404.921V433.617Z" fill="#354F52"/>
<path d="M404.921 450.035H315.933V454.781H404.921V450.035Z" fill="#354F52"/>
<path d="M463.354 520.134C469.43 520.134 474.354 515.209 474.354 509.134C474.354 503.059 469.43 498.134 463.354 498.134C457.279 498.134 452.354 503.059 452.354 509.134C452.354 515.209 457.279 520.134 463.354 520.134Z" fill="#84A98C"/>
<path d="M479.354 317.134C486.534 317.134 492.354 311.314 492.354 304.134C492.354 296.954 486.534 291.134 479.354 291.134C472.175 291.134 466.354 296.954 466.354 304.134C466.354 311.314 472.175 317.134 479.354 317.134Z" fill="#84A98C"/>
</g>
<defs>
<clipPath id="clip0_12_2">
<rect width="752.016" height="682" fill="white"/>
</clipPath>
</defs>
</svg>
