<svg width="581" height="454" viewBox="0 0 581 454" fill="none" xmlns="http://www.w3.org/2000/svg">
<g clip-path="url(#clip0_9_2)">
<path d="M164.469 157.098L152.295 212.779L205.469 230.098L197.65 157.098H164.469Z" fill="#FFB6B6"/>
<path d="M539.904 446H564V339.078C563.968 311.485 552.628 285.03 532.469 265.518C512.31 246.007 484.978 235.031 456.469 235H232.531C204.022 235.031 176.689 246.007 156.531 265.518C136.372 285.03 125.032 311.485 125 339.078V446H149.096V372.955C149.128 345.104 160.573 318.404 180.919 298.71C201.266 279.017 228.852 267.94 257.626 267.908H431.373C460.148 267.94 487.734 279.017 508.081 298.71C528.427 318.404 539.872 345.104 539.904 372.955V446Z" fill="#E6E6E6"/>
<path d="M419.849 153.13H368.843C368.121 153.131 367.43 153.419 366.92 153.929C366.411 154.44 366.125 155.133 366.126 155.854V236.428H422.573V155.854C422.573 155.496 422.503 155.142 422.366 154.811C422.229 154.481 422.028 154.18 421.775 153.927C421.522 153.674 421.222 153.474 420.891 153.337C420.561 153.2 420.206 153.13 419.849 153.13ZM394.517 198.911C392.922 198.904 391.395 198.267 390.267 197.139C389.139 196.011 388.502 194.483 388.495 192.888V183.595C388.497 181.999 389.132 180.469 390.261 179.341C391.391 178.213 392.921 177.579 394.517 177.579C396.113 177.579 397.644 178.213 398.773 179.341C399.903 180.469 400.538 181.999 400.54 183.595V192.888C400.533 194.483 399.896 196.011 398.768 197.139C397.64 198.267 396.112 198.904 394.517 198.911Z" fill="#84A98C"/>
<path d="M504.309 27.3854H286.28C284.407 27.3883 282.611 28.1338 281.287 29.4584C279.962 30.7829 279.217 32.5785 279.214 34.4517V181.579C279.216 183.452 279.961 185.249 281.285 186.573C282.61 187.898 284.407 188.643 286.28 188.645H504.309C506.183 188.643 507.979 187.898 509.304 186.573C510.629 185.249 511.374 183.452 511.376 181.579V34.4517C511.373 32.5785 510.627 30.7829 509.303 29.4584C507.978 28.1338 506.182 27.3884 504.309 27.3854Z" fill="#84A98C"/>
<path d="M502.489 32.4893H288.102C287.099 32.4915 286.138 32.8914 285.429 33.6014C284.721 34.3113 284.323 35.2733 284.323 36.2763V179.756C284.324 180.758 284.723 181.718 285.432 182.427C286.14 183.135 287.1 183.534 288.102 183.536H502.489C503.491 183.534 504.451 183.135 505.16 182.427C505.868 181.718 506.267 180.758 506.268 179.756V36.2763C506.268 35.2733 505.87 34.3113 505.162 33.6014C504.454 32.8914 503.492 32.4915 502.489 32.4893Z" fill="white"/>
<path d="M365.951 233.851V241.625C365.951 242.027 366.112 242.413 366.397 242.698C366.681 242.983 367.068 243.144 367.47 243.144H421.228C421.631 243.142 422.016 242.982 422.301 242.697C422.585 242.412 422.746 242.027 422.748 241.625V233.851H365.951Z" fill="#84A98C"/>
<path d="M460.73 245.849H333.181C332.832 245.849 332.488 245.771 332.172 245.621C331.857 245.471 331.579 245.253 331.359 244.981C331.139 244.71 330.983 244.394 330.901 244.054C330.819 243.715 330.813 243.361 330.885 243.02L332.865 233.62C332.977 233.094 333.266 232.623 333.684 232.284C334.102 231.945 334.622 231.759 335.16 231.757H458.752C459.289 231.759 459.81 231.945 460.228 232.284C460.645 232.623 460.935 233.094 461.047 233.62L463.026 243.02C463.098 243.361 463.093 243.715 463.011 244.054C462.929 244.394 462.772 244.71 462.552 244.981C462.332 245.253 462.055 245.471 461.739 245.621C461.424 245.771 461.079 245.849 460.73 245.849Z" fill="#84A98C"/>
<path d="M339.506 233.45H336.554C336.284 233.45 336.066 233.668 336.066 233.938V235.318C336.066 235.588 336.284 235.807 336.554 235.807H339.506C339.776 235.807 339.994 235.588 339.994 235.318V233.938C339.994 233.668 339.776 233.45 339.506 233.45Z" fill="#E6E6E6"/>
<path d="M347.363 233.45H344.411C344.141 233.45 343.923 233.668 343.923 233.938V235.318C343.923 235.588 344.141 235.807 344.411 235.807H347.363C347.633 235.807 347.851 235.588 347.851 235.318V233.938C347.851 233.668 347.633 233.45 347.363 233.45Z" fill="#E6E6E6"/>
<path d="M355.22 233.45H352.268C351.998 233.45 351.779 233.668 351.779 233.938V235.318C351.779 235.588 351.998 235.807 352.268 235.807H355.22C355.489 235.807 355.708 235.588 355.708 235.318V233.938C355.708 233.668 355.489 233.45 355.22 233.45Z" fill="#E6E6E6"/>
<path d="M363.076 233.45H360.124C359.855 233.45 359.636 233.668 359.636 233.938V235.318C359.636 235.588 359.855 235.807 360.124 235.807H363.076C363.346 235.807 363.565 235.588 363.565 235.318V233.938C363.565 233.668 363.346 233.45 363.076 233.45Z" fill="#E6E6E6"/>
<path d="M370.933 233.45H367.981C367.712 233.45 367.493 233.668 367.493 233.938V235.318C367.493 235.588 367.712 235.807 367.981 235.807H370.933C371.203 235.807 371.421 235.588 371.421 235.318V233.938C371.421 233.668 371.203 233.45 370.933 233.45Z" fill="#E6E6E6"/>
<path d="M378.79 233.45H375.838C375.568 233.45 375.35 233.668 375.35 233.938V235.318C375.35 235.588 375.568 235.807 375.838 235.807H378.79C379.06 235.807 379.278 235.588 379.278 235.318V233.938C379.278 233.668 379.06 233.45 378.79 233.45Z" fill="#E6E6E6"/>
<path d="M386.647 233.45H383.695C383.425 233.45 383.207 233.668 383.207 233.938V235.318C383.207 235.588 383.425 235.807 383.695 235.807H386.647C386.916 235.807 387.135 235.588 387.135 235.318V233.938C387.135 233.668 386.916 233.45 386.647 233.45Z" fill="#E6E6E6"/>
<path d="M394.503 233.45H391.551C391.282 233.45 391.063 233.668 391.063 233.938V235.318C391.063 235.588 391.282 235.807 391.551 235.807H394.503C394.773 235.807 394.992 235.588 394.992 235.318V233.938C394.992 233.668 394.773 233.45 394.503 233.45Z" fill="#E6E6E6"/>
<path d="M402.36 233.45H399.408C399.139 233.45 398.92 233.668 398.92 233.938V235.318C398.92 235.588 399.139 235.807 399.408 235.807H402.36C402.63 235.807 402.848 235.588 402.848 235.318V233.938C402.848 233.668 402.63 233.45 402.36 233.45Z" fill="#E6E6E6"/>
<path d="M410.217 233.45H407.265C406.995 233.45 406.777 233.668 406.777 233.938V235.318C406.777 235.588 406.995 235.807 407.265 235.807H410.217C410.487 235.807 410.705 235.588 410.705 235.318V233.938C410.705 233.668 410.487 233.45 410.217 233.45Z" fill="#E6E6E6"/>
<path d="M418.074 233.45H415.122C414.852 233.45 414.634 233.668 414.634 233.938V235.318C414.634 235.588 414.852 235.807 415.122 235.807H418.074C418.343 235.807 418.562 235.588 418.562 235.318V233.938C418.562 233.668 418.343 233.45 418.074 233.45Z" fill="#E6E6E6"/>
<path d="M425.931 233.45H422.979C422.709 233.45 422.49 233.668 422.49 233.938V235.318C422.49 235.588 422.709 235.807 422.979 235.807H425.931C426.2 235.807 426.419 235.588 426.419 235.318V233.938C426.419 233.668 426.2 233.45 425.931 233.45Z" fill="#E6E6E6"/>
<path d="M433.787 233.45H430.835C430.566 233.45 430.347 233.668 430.347 233.938V235.318C430.347 235.588 430.566 235.807 430.835 235.807H433.787C434.057 235.807 434.275 235.588 434.275 235.318V233.938C434.275 233.668 434.057 233.45 433.787 233.45Z" fill="#E6E6E6"/>
<path d="M441.644 233.45H438.692C438.422 233.45 438.204 233.668 438.204 233.938V235.318C438.204 235.588 438.422 235.807 438.692 235.807H441.644C441.914 235.807 442.132 235.588 442.132 235.318V233.938C442.132 233.668 441.914 233.45 441.644 233.45Z" fill="#E6E6E6"/>
<path d="M449.501 233.45H446.549C446.279 233.45 446.061 233.668 446.061 233.938V235.318C446.061 235.588 446.279 235.807 446.549 235.807H449.501C449.77 235.807 449.989 235.588 449.989 235.318V233.938C449.989 233.668 449.77 233.45 449.501 233.45Z" fill="#E6E6E6"/>
<path d="M457.358 233.45H454.406C454.136 233.45 453.917 233.668 453.917 233.938V235.318C453.917 235.588 454.136 235.807 454.406 235.807H457.358C457.627 235.807 457.846 235.588 457.846 235.318V233.938C457.846 233.668 457.627 233.45 457.358 233.45Z" fill="#E6E6E6"/>
<path d="M339.413 237.378H336.461C336.192 237.378 335.973 237.597 335.973 237.866V239.247C335.973 239.516 336.192 239.735 336.461 239.735H339.413C339.683 239.735 339.902 239.516 339.902 239.247V237.866C339.902 237.597 339.683 237.378 339.413 237.378Z" fill="#E6E6E6"/>
<path d="M347.27 237.378H344.318C344.048 237.378 343.83 237.597 343.83 237.866V239.247C343.83 239.516 344.048 239.735 344.318 239.735H347.27C347.54 239.735 347.758 239.516 347.758 239.247V237.866C347.758 237.597 347.54 237.378 347.27 237.378Z" fill="#E6E6E6"/>
<path d="M355.127 237.378H352.175C351.905 237.378 351.687 237.597 351.687 237.866V239.247C351.687 239.516 351.905 239.735 352.175 239.735H355.127C355.396 239.735 355.615 239.516 355.615 239.247V237.866C355.615 237.597 355.396 237.378 355.127 237.378Z" fill="#E6E6E6"/>
<path d="M362.984 237.378H360.032C359.762 237.378 359.543 237.597 359.543 237.866V239.247C359.543 239.516 359.762 239.735 360.032 239.735H362.984C363.253 239.735 363.472 239.516 363.472 239.247V237.866C363.472 237.597 363.253 237.378 362.984 237.378Z" fill="#E6E6E6"/>
<path d="M370.84 237.378H367.888C367.619 237.378 367.4 237.597 367.4 237.866V239.247C367.4 239.516 367.619 239.735 367.888 239.735H370.84C371.11 239.735 371.329 239.516 371.329 239.247V237.866C371.329 237.597 371.11 237.378 370.84 237.378Z" fill="#E6E6E6"/>
<path d="M378.697 237.378H375.745C375.476 237.378 375.257 237.597 375.257 237.866V239.247C375.257 239.516 375.476 239.735 375.745 239.735H378.697C378.967 239.735 379.185 239.516 379.185 239.247V237.866C379.185 237.597 378.967 237.378 378.697 237.378Z" fill="#E6E6E6"/>
<path d="M386.554 237.378H383.602C383.332 237.378 383.114 237.597 383.114 237.866V239.247C383.114 239.516 383.332 239.735 383.602 239.735H386.554C386.823 239.735 387.042 239.516 387.042 239.247V237.866C387.042 237.597 386.823 237.378 386.554 237.378Z" fill="#E6E6E6"/>
<path d="M394.411 237.378H391.459C391.189 237.378 390.97 237.597 390.97 237.866V239.247C390.97 239.516 391.189 239.735 391.459 239.735H394.411C394.68 239.735 394.899 239.516 394.899 239.247V237.866C394.899 237.597 394.68 237.378 394.411 237.378Z" fill="#E6E6E6"/>
<path d="M402.267 237.378H399.315C399.046 237.378 398.827 237.597 398.827 237.866V239.247C398.827 239.516 399.046 239.735 399.315 239.735H402.267C402.537 239.735 402.756 239.516 402.756 239.247V237.866C402.756 237.597 402.537 237.378 402.267 237.378Z" fill="#E6E6E6"/>
<path d="M410.124 237.378H407.172C406.903 237.378 406.684 237.597 406.684 237.866V239.247C406.684 239.516 406.903 239.735 407.172 239.735H410.124C410.394 239.735 410.612 239.516 410.612 239.247V237.866C410.612 237.597 410.394 237.378 410.124 237.378Z" fill="#E6E6E6"/>
<path d="M417.981 237.378H415.029C414.759 237.378 414.541 237.597 414.541 237.866V239.247C414.541 239.516 414.759 239.735 415.029 239.735H417.981C418.251 239.735 418.469 239.516 418.469 239.247V237.866C418.469 237.597 418.251 237.378 417.981 237.378Z" fill="#E6E6E6"/>
<path d="M425.838 237.378H422.886C422.616 237.378 422.398 237.597 422.398 237.866V239.247C422.398 239.516 422.616 239.735 422.886 239.735H425.838C426.107 239.735 426.326 239.516 426.326 239.247V237.866C426.326 237.597 426.107 237.378 425.838 237.378Z" fill="#E6E6E6"/>
<path d="M433.694 237.378H430.742C430.473 237.378 430.254 237.597 430.254 237.866V239.247C430.254 239.516 430.473 239.735 430.742 239.735H433.694C433.964 239.735 434.183 239.516 434.183 239.247V237.866C434.183 237.597 433.964 237.378 433.694 237.378Z" fill="#E6E6E6"/>
<path d="M441.551 237.378H438.599C438.33 237.378 438.111 237.597 438.111 237.866V239.247C438.111 239.516 438.33 239.735 438.599 239.735H441.551C441.821 239.735 442.039 239.516 442.039 239.247V237.866C442.039 237.597 441.821 237.378 441.551 237.378Z" fill="#E6E6E6"/>
<path d="M449.408 237.378H446.456C446.186 237.378 445.968 237.597 445.968 237.866V239.247C445.968 239.516 446.186 239.735 446.456 239.735H449.408C449.678 239.735 449.896 239.516 449.896 239.247V237.866C449.896 237.597 449.678 237.378 449.408 237.378Z" fill="#E6E6E6"/>
<path d="M457.265 237.378H454.313C454.043 237.378 453.825 237.597 453.825 237.866V239.247C453.825 239.516 454.043 239.735 454.313 239.735H457.265C457.534 239.735 457.753 239.516 457.753 239.247V237.866C457.753 237.597 457.534 237.378 457.265 237.378Z" fill="#E6E6E6"/>
<path d="M404.624 242.092H374.174C373.904 242.092 373.686 242.311 373.686 242.58V243.961C373.686 244.231 373.904 244.449 374.174 244.449H404.624C404.894 244.449 405.113 244.231 405.113 243.961V242.58C405.113 242.311 404.894 242.092 404.624 242.092Z" fill="#E6E6E6"/>
<path d="M470.523 68.5077V144.028C470.522 149.085 468.513 153.935 464.937 157.511C461.361 161.088 456.511 163.097 451.453 163.098H356.933C353.212 163.098 349.572 162.011 346.461 159.97C343.35 157.928 340.903 155.022 339.423 151.608C338.927 150.479 338.549 149.303 338.293 148.098C340.302 148.875 342.439 149.272 344.593 149.268H439.113C443.774 149.261 448.241 147.407 451.537 144.111C454.832 140.816 456.687 136.348 456.693 131.688V56.1677C456.697 54.0133 456.3 51.8769 455.523 49.8677C456.729 50.1231 457.905 50.5018 459.033 50.9977C462.447 52.478 465.354 54.9243 467.395 58.0354C469.437 61.1464 470.524 64.7866 470.523 68.5077Z" fill="#F2F2F2"/>
<path d="M117.897 368.973L108.522 374.778L80.903 340.828L94.739 332.262L117.897 368.973Z" fill="#FFB6B6"/>
<path d="M91.6348 362.442L107.469 347.098C95.7049 318.069 94.7648 300.076 78.4565 264.967C117.15 272.881 144.813 272.4 176.813 265.304C187.646 262.94 215.598 241.348 213.3 230.277C213.193 229.76 213.066 229.247 212.919 228.739C209.485 217.028 211.903 199.094 204.469 186.098C190.714 180.912 169.816 198.423 153.469 209.098C145.586 214.245 151.356 221.259 145.469 223.098L122.9 230.424L67.5271 221.481C64.851 221.075 62.1211 221.203 59.4948 221.858C56.8684 222.512 54.3975 223.679 52.2245 225.293C50.0515 226.907 48.2194 228.935 46.8337 231.26C45.448 233.585 44.5362 236.161 44.1508 238.84C44.0571 239.441 43.9893 240.046 43.9472 240.653C46.495 254.757 49.1509 268.49 52.0102 281.527C52.9332 285.735 51.375 293.802 54.8459 293.922C58.3168 294.042 56.9186 302.386 57.9996 306.465C64.6544 331.579 68.8627 343.733 91.6348 362.442Z" fill="#354F52"/>
<path d="M61.329 429.745L51.562 424.647L67.015 383.711L81.43 391.235L61.329 429.745Z" fill="#FFB6B6"/>
<path d="M59.7011 399.184L75.3623 409.967C94.5569 382.207 107.02 345.113 116.301 303.607C152.44 287.842 184.062 269.806 206.098 245.613C209.717 241.557 211.614 236.252 211.389 230.821C211.163 225.39 208.832 220.26 204.889 216.518C204.503 216.157 204.104 215.811 203.693 215.48C194.148 207.877 172.95 212.251 159.401 205.897L135.197 239.396L137.979 247.199L129.559 251.298L122.45 254.759L114.312 258.721L87.6335 271.708C85.2148 272.917 83.0595 274.593 81.2917 276.639C79.524 278.685 78.1788 281.061 77.3339 283.629C76.4889 286.198 76.1608 288.908 76.3686 291.604C76.5764 294.3 77.3159 296.928 78.5445 299.337C78.814 299.883 79.1066 300.416 79.4221 300.937L69.5141 350.297C69.5141 350.297 72.2404 358.89 67.9506 358.086C63.6608 357.282 65.9984 367.811 65.9984 367.811L59.7011 399.184Z" fill="#354F52"/>
<path d="M268.892 237.703L257.469 210.098L248.469 215.098L253.904 243.18C253.36 244.959 253.322 246.855 253.796 248.654C254.27 250.453 255.237 252.084 256.587 253.364C257.937 254.644 259.618 255.522 261.439 255.899C263.261 256.277 265.152 256.138 266.9 255.5C268.647 254.861 270.182 253.748 271.331 252.285C272.481 250.822 273.2 249.067 273.407 247.218C273.614 245.369 273.301 243.499 272.503 241.818C271.705 240.138 270.455 238.713 268.892 237.703Z" fill="#FFB6B6"/>
<path d="M77.208 19.4069L94.589 43.7065L102.222 36.7973L90.5652 10.6771C90.6923 8.82088 90.2991 6.96607 89.4298 5.32112C88.5605 3.67618 87.2497 2.30631 85.6445 1.36554C84.0394 0.424773 82.2036 -0.049609 80.3437 -0.00426933C78.4837 0.0410704 76.6733 0.604334 75.1159 1.6222C73.5585 2.64006 72.3159 4.07216 71.5278 5.75751C70.7397 7.44286 70.4373 9.31463 70.6547 11.1624C70.872 13.0102 71.6005 14.7607 72.7582 16.2172C73.9159 17.6736 75.4569 18.7782 77.208 19.4069Z" fill="#FFB6B6"/>
<path d="M155.697 173.421C144.423 190.907 185.725 229.007 207.469 220.098C211.276 218.538 224.373 213.385 215.421 206.241C206.469 199.098 216.459 207.092 216.695 202.442C216.853 199.333 214.446 192.513 216.957 192.805C219.469 193.098 220.91 185.834 215.44 183.984C213.538 183.305 211.87 182.097 210.63 180.503C209.39 178.909 208.63 176.994 208.44 174.984C207.917 155.817 214.408 135.806 214.408 135.806L240.906 203.541C240.906 203.541 240.71 215.26 244.089 211.679C247.469 208.098 247.223 219.688 247.223 219.688C247.223 219.688 252.247 223.195 249.358 225.146C246.469 227.098 252.469 233.098 252.469 233.098L266.469 232.098C266.469 232.098 266.249 221.698 263.859 219.398C261.469 217.098 262.643 213.479 262.643 213.479C262.643 213.479 257.714 208.895 260.592 203.496C263.469 198.098 239.64 101.535 239.64 101.535C238.686 96.8888 236.465 92.5974 233.224 89.1348C229.983 85.6722 225.847 83.1732 221.275 81.9142L206.154 77.7509L203.469 67.0977H182.177L178.469 74.0977L144.469 71.0977C144.469 71.0977 110.826 40.4878 112.469 38.0977C114.111 35.7076 108.896 30.1119 108.896 30.1119C108.896 30.1119 104.442 28.6542 106.955 27.8759C109.469 27.0976 104.718 25.2982 104.718 25.2982C104.718 25.2982 100.318 24.1421 102.394 22.6199C104.469 21.0977 95.4685 20.0976 95.4685 20.0976L83.7914 29.6252L86.1515 33.6271C86.1515 33.6271 84.7125 39.0765 86.5905 37.0871C88.4685 35.0977 88.822 40.8711 88.822 40.8711C88.822 40.8711 89.7811 47.193 95.4685 49.0977C101.156 51.0024 105.469 69.0977 105.469 69.0977L153.469 109.098C146.158 117.489 147.898 126.264 154.374 135.239L155.697 173.421Z" fill="#84A98C"/>
<path d="M192.343 60.0195C205.076 60.0195 215.398 49.6971 215.398 36.9638C215.398 24.2305 205.076 13.9081 192.343 13.9081C179.609 13.9081 169.287 24.2305 169.287 36.9638C169.287 49.6971 179.609 60.0195 192.343 60.0195Z" fill="#FFB6B6"/>
<path d="M-52 445.19C-52.0009 445.505 -51.8768 445.807 -51.655 446.03C-51.4331 446.253 -51.1317 446.379 -50.8171 446.38H664.48C664.796 446.38 665.098 446.255 665.322 446.031C665.545 445.808 665.67 445.506 665.67 445.19C665.67 444.874 665.545 444.572 665.322 444.349C665.098 444.125 664.796 444 664.48 444H-50.81C-50.9658 444 -51.1201 444.03 -51.2643 444.089C-51.4084 444.148 -51.5395 444.235 -51.65 444.345C-51.7605 444.455 -51.8483 444.585 -51.9083 444.729C-51.9684 444.873 -51.9995 445.027 -52 445.183L-52 445.19Z" fill="#CCCCCC"/>
<path d="M376.535 94.8495H361.403C361.001 94.8495 360.616 94.69 360.333 94.4062C360.049 94.1225 359.89 93.7376 359.89 93.3363C359.89 92.9349 360.049 92.55 360.333 92.2663C360.616 91.9825 361.001 91.8231 361.403 91.8231H376.535C376.936 91.8231 377.321 91.9825 377.605 92.2663C377.889 92.55 378.048 92.9349 378.048 93.3363C378.048 93.7376 377.889 94.1225 377.605 94.4062C377.321 94.69 376.936 94.8495 376.535 94.8495Z" fill="#84A98C"/>
<path d="M403.772 94.8495H388.64C388.442 94.8495 388.245 94.8103 388.061 94.7343C387.878 94.6582 387.711 94.5468 387.57 94.4062C387.43 94.2657 387.318 94.0989 387.242 93.9153C387.166 93.7318 387.127 93.535 387.127 93.3363C387.127 93.1376 387.166 92.9408 387.242 92.7572C387.318 92.5736 387.43 92.4068 387.57 92.2663C387.711 92.1258 387.878 92.0143 388.061 91.9382C388.245 91.8622 388.442 91.8231 388.64 91.8231H403.772C403.971 91.8231 404.168 91.8622 404.352 91.9382C404.535 92.0143 404.702 92.1258 404.842 92.2663C404.983 92.4068 405.094 92.5736 405.17 92.7572C405.247 92.9408 405.286 93.1376 405.286 93.3363C405.286 93.535 405.247 93.7318 405.17 93.9153C405.094 94.0989 404.983 94.2657 404.842 94.4062C404.702 94.5468 404.535 94.6582 404.352 94.7343C404.168 94.8103 403.971 94.8495 403.772 94.8495Z" fill="#84A98C"/>
<path d="M417.391 106.955H402.259C402.061 106.955 401.864 106.916 401.68 106.84C401.497 106.764 401.33 106.652 401.189 106.512C401.049 106.371 400.937 106.205 400.861 106.021C400.785 105.837 400.746 105.641 400.746 105.442C400.746 105.243 400.785 105.046 400.861 104.863C400.937 104.679 401.049 104.512 401.189 104.372C401.33 104.231 401.497 104.12 401.68 104.044C401.864 103.968 402.061 103.929 402.259 103.929H417.391C417.59 103.929 417.787 103.968 417.97 104.044C418.154 104.12 418.321 104.231 418.461 104.372C418.602 104.512 418.713 104.679 418.789 104.863C418.865 105.046 418.905 105.243 418.905 105.442C418.905 105.641 418.865 105.837 418.789 106.021C418.713 106.205 418.602 106.371 418.461 106.512C418.321 106.652 418.154 106.764 417.97 106.84C417.787 106.916 417.59 106.955 417.391 106.955Z" fill="#84A98C"/>
<path d="M390.237 106.955H361.403C361.001 106.955 360.616 106.796 360.333 106.512C360.049 106.228 359.89 105.843 359.89 105.442C359.89 105.041 360.049 104.656 360.333 104.372C360.616 104.088 361.001 103.929 361.403 103.929H390.237C390.639 103.929 391.023 104.088 391.307 104.372C391.591 104.656 391.75 105.041 391.75 105.442C391.75 105.843 391.591 106.228 391.307 106.512C391.023 106.796 390.639 106.955 390.237 106.955Z" fill="#84A98C"/>
<path d="M444.713 94.8495H415.878C415.477 94.8495 415.092 94.69 414.808 94.4062C414.524 94.1225 414.365 93.7376 414.365 93.3363C414.365 92.9349 414.524 92.55 414.808 92.2663C415.092 91.9825 415.477 91.8231 415.878 91.8231H444.713C444.911 91.8231 445.108 91.8622 445.292 91.9382C445.475 92.0143 445.642 92.1258 445.783 92.2663C445.923 92.4068 446.035 92.5736 446.111 92.7572C446.187 92.9408 446.226 93.1376 446.226 93.3363C446.226 93.535 446.187 93.7318 446.111 93.9153C446.035 94.0989 445.923 94.2657 445.783 94.4062C445.642 94.5468 445.475 94.6582 445.292 94.7343C445.108 94.8103 444.911 94.8495 444.713 94.8495Z" fill="#84A98C"/>
<path d="M386.894 71.9255H358.06C357.861 71.926 357.664 71.8872 357.48 71.8114C357.296 71.7356 357.128 71.6242 356.988 71.4837C356.847 71.3431 356.735 71.1761 356.659 70.9923C356.582 70.8084 356.543 70.6113 356.543 70.4123C356.543 70.2132 356.582 70.0161 356.659 69.8323C356.735 69.6485 356.847 69.4815 356.988 69.3409C357.128 69.2003 357.296 69.089 357.48 69.0132C357.664 68.9373 357.861 68.8986 358.06 68.8991H386.894C387.296 68.8991 387.681 69.0585 387.964 69.3423C388.248 69.6261 388.408 70.011 388.408 70.4123C388.408 70.8136 388.248 71.1985 387.964 71.4823C387.681 71.7661 387.296 71.9255 386.894 71.9255Z" fill="#84A98C"/>
<path d="M389.265 80.7662C388.983 80.7664 388.707 80.6782 388.477 80.5142C388.248 80.3501 388.075 80.1183 387.983 79.8511C387.891 79.5839 387.885 79.2948 387.966 79.0241C388.047 78.7533 388.21 78.5146 388.433 78.3413L395.816 72.6022C396.113 72.3716 396.358 72.0818 396.537 71.7514C396.716 71.4209 396.824 71.0569 396.855 70.6824C396.886 70.3079 396.839 69.9311 396.716 69.5758C396.594 69.2205 396.399 68.8945 396.144 68.6185L389.946 61.9079C389.825 61.7772 389.731 61.624 389.669 61.457C389.608 61.2901 389.58 61.1126 389.587 60.9348C389.594 60.757 389.636 60.5823 389.71 60.4207C389.785 60.2591 389.89 60.1138 390.021 59.993C390.152 59.8722 390.305 59.7783 390.472 59.7168C390.639 59.6552 390.816 59.6271 390.994 59.6341C391.172 59.6411 391.347 59.6831 391.508 59.7576C391.67 59.8321 391.815 59.9377 391.936 60.0684L401.141 70.0332C401.268 70.1711 401.366 70.3339 401.427 70.5113C401.488 70.6887 401.512 70.8769 401.496 71.064C401.481 71.251 401.427 71.4328 401.338 71.5979C401.248 71.763 401.126 71.9077 400.978 72.0229L390.096 80.4811C389.859 80.6661 389.566 80.7664 389.265 80.7662Z" fill="#84A98C"/>
<path d="M356.601 80.7662C356.884 80.7664 357.159 80.6782 357.389 80.5142C357.619 80.3501 357.792 80.1183 357.883 79.8511C357.975 79.5839 357.981 79.2948 357.9 79.0241C357.82 78.7533 357.656 78.5146 357.433 78.3413L350.05 72.6022C349.753 72.3716 349.508 72.0818 349.329 71.7514C349.15 71.4209 349.042 71.0569 349.011 70.6824C348.98 70.3079 349.028 69.9311 349.15 69.5758C349.272 69.2205 349.467 68.8945 349.722 68.6185L355.921 61.9079C356.042 61.7772 356.135 61.624 356.197 61.457C356.259 61.2901 356.287 61.1126 356.28 60.9348C356.273 60.757 356.231 60.5823 356.156 60.4207C356.082 60.2591 355.976 60.1138 355.845 59.993C355.715 59.8722 355.562 59.7783 355.395 59.7168C355.228 59.6552 355.05 59.6271 354.872 59.6341C354.694 59.6411 354.52 59.6831 354.358 59.7576C354.197 59.8321 354.051 59.9377 353.931 60.0684L344.725 70.0332C344.598 70.1711 344.501 70.3339 344.439 70.5113C344.378 70.6887 344.355 70.8769 344.37 71.064C344.385 71.251 344.439 71.4328 344.529 71.5979C344.618 71.763 344.741 71.9077 344.889 72.0229L355.77 80.4811C356.007 80.6661 356.3 80.7664 356.601 80.7662Z" fill="#84A98C"/>
<path d="M401.801 132.906H372.966C372.565 132.906 372.18 132.746 371.896 132.462C371.613 132.179 371.453 131.794 371.453 131.392C371.453 130.991 371.613 130.606 371.896 130.322C372.18 130.038 372.565 129.879 372.966 129.879H401.801C402.202 129.879 402.587 130.038 402.871 130.322C403.155 130.606 403.314 130.991 403.314 131.392C403.314 131.794 403.155 132.179 402.871 132.462C402.587 132.746 402.202 132.906 401.801 132.906Z" fill="#84A98C"/>
<path d="M406.882 140.391C406.599 140.391 406.324 140.303 406.094 140.139C405.864 139.975 405.691 139.743 405.599 139.476C405.508 139.209 405.502 138.92 405.582 138.649C405.663 138.378 405.826 138.14 406.049 137.966L413.433 132.227C413.729 131.996 413.975 131.707 414.154 131.376C414.333 131.046 414.441 130.682 414.472 130.307C414.503 129.933 414.455 129.556 414.333 129.201C414.21 128.845 414.016 128.519 413.761 128.243L407.562 121.533C407.441 121.402 407.347 121.249 407.286 121.082C407.224 120.915 407.196 120.738 407.203 120.56C407.21 120.382 407.252 120.207 407.327 120.046C407.401 119.884 407.507 119.739 407.637 119.618C407.768 119.497 407.921 119.403 408.088 119.342C408.255 119.28 408.433 119.252 408.61 119.259C408.788 119.266 408.963 119.308 409.125 119.382C409.286 119.457 409.431 119.563 409.552 119.693L418.757 129.658C418.885 129.796 418.982 129.959 419.043 130.136C419.105 130.314 419.128 130.502 419.113 130.689C419.097 130.876 419.043 131.058 418.954 131.223C418.865 131.388 418.742 131.533 418.594 131.648L407.713 140.106C407.475 140.291 407.183 140.391 406.882 140.391Z" fill="#84A98C"/>
<path d="M356.601 140.391C356.884 140.391 357.159 140.303 357.389 140.139C357.619 139.975 357.792 139.743 357.883 139.476C357.975 139.209 357.981 138.92 357.9 138.649C357.82 138.378 357.656 138.14 357.433 137.966L350.05 132.227C349.753 131.996 349.508 131.707 349.329 131.376C349.15 131.046 349.042 130.682 349.011 130.307C348.98 129.933 349.028 129.556 349.15 129.201C349.272 128.845 349.467 128.519 349.722 128.243L355.921 121.533C356.165 121.269 356.294 120.919 356.28 120.56C356.266 120.201 356.109 119.862 355.845 119.618C355.581 119.374 355.231 119.245 354.872 119.259C354.513 119.273 354.174 119.429 353.931 119.693L344.725 129.658C344.598 129.796 344.501 129.959 344.439 130.136C344.378 130.314 344.355 130.502 344.37 130.689C344.385 130.876 344.439 131.058 344.529 131.223C344.618 131.388 344.741 131.533 344.889 131.648L355.77 140.106C356.007 140.291 356.3 140.391 356.601 140.391Z" fill="#84A98C"/>
<path d="M359.174 136.151L365.235 122.286C365.397 121.92 365.698 121.633 366.071 121.488C366.443 121.343 366.859 121.352 367.225 121.512C367.592 121.672 367.88 121.971 368.027 122.344C368.174 122.716 368.167 123.131 368.008 123.498L361.947 137.364C361.868 137.547 361.754 137.712 361.611 137.851C361.468 137.99 361.298 138.099 361.113 138.172C360.928 138.245 360.73 138.281 360.53 138.277C360.331 138.273 360.134 138.23 359.952 138.151C359.769 138.071 359.604 137.956 359.466 137.812C359.328 137.668 359.22 137.498 359.148 137.313C359.075 137.127 359.04 136.929 359.045 136.729C359.05 136.53 359.094 136.334 359.174 136.151Z" fill="#84A98C"/>
<path d="M174.963 49.267C180.413 45.007 172.963 26.267 181.963 30.267C181.963 30.267 192.963 23.267 195.173 27.867C197.732 33.1934 206.833 30.777 212.423 28.897C211.984 27.8758 211.672 26.8044 211.493 25.707C212.525 26.52 213.619 27.2522 214.763 27.897C215.531 27.4868 216.211 26.9295 216.763 26.257C217.309 25.6325 217.65 24.856 217.741 24.032C217.832 23.2079 217.669 22.3756 217.273 21.647C216.343 20.217 214.423 19.777 213.293 18.507C213.163 18.3284 213.077 18.1208 213.045 17.902C213.012 17.6832 213.033 17.4598 213.106 17.2508C213.24 16.7398 213.261 16.2054 213.165 15.6857C213.07 15.166 212.861 14.6737 212.553 14.2439C212.246 13.8142 211.847 13.4575 211.386 13.1994C210.925 12.9412 210.413 12.7879 209.886 12.7504C209.674 12.7569 209.463 12.7111 209.273 12.617C208.325 12.0364 207.448 11.3449 206.663 10.5571C207.978 10.6205 209.295 10.5837 210.603 10.447C210.873 10.417 211.143 10.387 211.413 10.347C210.913 9.17355 210.166 8.12193 209.222 7.26414C208.277 6.40635 207.159 5.76264 205.943 5.37703C203.376 4.60103 200.705 4.22662 198.023 4.26704C196.473 4.21704 194.923 4.16705 193.383 4.11705C190.117 3.88461 186.835 3.99857 183.593 4.45704C180.13 5.0889 176.849 6.47779 173.985 8.52452C171.12 10.5712 168.743 13.2253 167.023 16.297C163.633 22.447 159.963 42.267 174.963 49.267Z" fill="#354F52"/>
<path d="M226.232 218C229.852 224.46 209.462 226.36 187.372 225.49C186.945 223.854 186.238 222.305 185.282 220.91C182.842 217.37 185.792 193.42 182.232 191C183.842 194.9 177.332 220.82 175.972 224.81C155.992 223.21 137.782 219.58 138.002 215.26C138.062 214 142.232 190 144.252 188.18C146.262 186.36 144.232 152 144.252 144.63C144.262 137.25 155.232 83 155.232 81C155.232 79 181.232 69 181.232 69L192.232 132L208.952 72.76C210.587 74.9828 212.476 77.0066 214.582 78.79C217.932 81.58 231.232 93 231.232 93L219.842 177.28C219.842 177.28 225.232 190 224.952 195.05C224.844 199.057 224.056 203.017 222.622 206.76C221.002 211.51 221.172 208.96 226.232 218Z" fill="#354F52"/>
<path d="M65.9667 443.682L24 443.681V443.15C24.0007 434.129 31.3135 426.816 40.3346 426.816L48.0013 421L62.304 426.817L65.9673 426.817L65.9667 443.682Z" fill="#354F52"/>
<path d="M127.944 365.987L108.07 402.95L107.602 402.698C99.6571 398.426 96.679 388.522 100.95 380.576L100.951 380.575L99.4585 371.07L111.354 361.227L113.089 358L127.944 365.987Z" fill="#354F52"/>
</g>
<defs>
<clipPath id="clip0_9_2">
<rect width="581" height="454" fill="white"/>
</clipPath>
</defs>
</svg>
